<?xml version="1.0" standalone="no"?>
<!DOCTYPE svg PUBLIC "-//W3C//DTD SVG 20010904//EN"
 "http://www.w3.org/TR/2001/REC-SVG-20010904/DTD/svg10.dtd">
<svg version="1.0" xmlns="http://www.w3.org/2000/svg"
 width="626.000000pt" height="626.000000pt" viewBox="0 0 626.000000 626.000000"
 preserveAspectRatio="xMidYMid meet">
<metadata>
Created by potrace 1.11, written by Peter Selinger 2001-2013
</metadata>
<g transform="translate(0.000000,626.000000) scale(0.100000,-0.100000)"
fill="#000000" stroke="none">
<path d="M1070 6245 c-510 -86 -907 -445 -1029 -931 -43 -172 -42 -144 -39
-2229 4 -2208 -1 -2027 64 -2225 124 -374 419 -668 795 -794 196 -65 17 -60
2224 -64 2086 -3 2057 -4 2229 39 434 109 790 461 901 889 46 179 45 107 45
2201 0 1305 -3 1995 -10 2035 -53 306 -163 528 -360 724 -192 193 -413 305
-701 355 -72 13 -359 15 -2064 14 -1548 -1 -1996 -4 -2055 -14z m2240 -795
c104 -36 186 -87 261 -163 162 -164 218 -397 150 -617 -45 -144 -162 -286
-295 -355 l-76 -40 0 -122 0 -123 242 0 c188 0 245 3 257 13 27 23 99 47 142
47 115 0 213 -101 213 -220 -2 -168 -168 -264 -325 -187 l-56 27 -236 0 -237
0 0 -1036 0 -1036 88 6 c111 9 299 48 427 88 208 66 449 214 570 351 71 82
128 163 121 175 -3 5 -40 19 -83 32 l-77 23 115 111 c272 264 441 421 455 424
8 2 14 -4 14 -13 0 -15 99 -429 155 -644 13 -52 23 -96 21 -98 -2 -2 -39 8
-82 22 -106 33 -117 33 -137 -11 -32 -66 -145 -228 -230 -329 -280 -333 -653
-574 -1067 -691 -68 -19 -320 -64 -360 -64 -5 0 -34 -52 -64 -115 -31 -63 -58
-115 -60 -115 -3 0 -28 46 -55 103 -28 56 -54 108 -59 114 -4 7 -69 21 -145
32 -437 64 -835 268 -1167 601 -163 162 -314 371 -401 552 -13 27 -29 48 -36
48 -8 0 -52 -10 -99 -21 -46 -12 -87 -20 -89 -17 -2 2 15 65 39 139 98 302
175 546 182 572 3 15 10 29 14 32 4 2 126 -124 270 -282 188 -204 259 -288
249 -293 -8 -4 -42 -13 -77 -20 -34 -7 -65 -17 -68 -22 -10 -16 108 -180 190
-264 141 -145 336 -259 564 -333 111 -36 308 -77 415 -86 l77 -7 0 1036 0
1036 -264 0 -264 0 -53 -27 c-151 -79 -323 21 -323 187 0 131 110 231 238 217
50 -5 110 -29 121 -48 4 -5 119 -9 276 -9 l269 0 0 116 0 115 -32 11 c-355
124 -520 536 -348 867 82 157 250 287 422 326 87 20 224 13 308 -15z"/>
<path d="M3029 5157 c-91 -34 -145 -84 -186 -172 -78 -171 15 -379 195 -431
111 -33 233 -3 312 76 155 155 114 410 -82 511 -54 28 -184 36 -239 16z"/>
</g>
</svg>
